<?xml version="1.0" encoding="UTF-8" standalone="no"?>
<svg
   xmlns:dc="http://purl.org/dc/elements/1.1/"
   xmlns:cc="http://creativecommons.org/ns#"
   xmlns:rdf="http://www.w3.org/1999/02/22-rdf-syntax-ns#"
   xmlns:svg="http://www.w3.org/2000/svg"
   xmlns="http://www.w3.org/2000/svg"
   id="svg18"
   viewBox="0 0 17183.82 19640.93"
   style="clip-rule:evenodd;fill-rule:evenodd;image-rendering:optimizeQuality;shape-rendering:geometricPrecision;text-rendering:geometricPrecision"
   version="1.1"
   height="196.4093mm"
   width="171.8382mm"
   xml:space="preserve"><metadata
   id="metadata22"><rdf:RDF><cc:Work
       rdf:about=""><dc:format>image/svg+xml</dc:format><dc:type
         rdf:resource="http://purl.org/dc/dcmitype/StillImage" /><dc:title></dc:title></cc:Work></rdf:RDF></metadata>
 <defs
   id="defs4">
  <style
   id="style2"
   type="text/css">
   <![CDATA[
    .fil1 {fill:#5B5B5B}
    .fil0 {fill:#5B5B5B;fill-rule:nonzero}
   ]]>
  </style>
 </defs>
 <g
   transform="translate(-2296.04,-2380.54)"
   id="Capa_x0020_1">
  <metadata
   id="CorelCorpID_0Corel-Layer" />
  <path
   style="fill:#5b5b5b;fill-rule:nonzero"
   id="path7"
   d="m 19251.69,17700.85 h -44.36 v 89.54 h 45.61 c 25.22,0 43.21,-3.37 53.93,-10.2 10.61,-6.72 15.98,-17.76 15.98,-33.2 0,-16.18 -5.58,-27.95 -16.82,-35.21 -11.15,-7.26 -29.32,-10.93 -54.34,-10.93 z m 7.97,-28.39 c 36.59,0 63.7,5.89 81.46,17.56 17.76,11.67 26.71,29.53 26.71,53.61 0,18.29 -5.46,33.53 -16.29,45.71 -10.93,12.2 -25.76,19.98 -44.36,23.24 l 57.92,118.56 h -48.46 l -54.12,-112.37 h -55.19 v 112.37 h -43.4 v -258.68 z m 193.09,134.54 c 0,-27.22 -4.94,-52.97 -14.7,-77.26 -9.89,-24.38 -24.08,-45.81 -42.48,-64.41 -19.23,-19.14 -40.99,-33.64 -65.05,-43.52 -24.08,-9.99 -49.83,-14.93 -77.25,-14.93 -27.12,0 -52.46,4.84 -76.01,14.4 -23.54,9.68 -44.44,23.76 -62.73,42.14 -19.24,19.46 -33.97,41.43 -44.26,65.81 -10.19,24.39 -15.34,49.92 -15.34,76.52 0,26.06 5.04,51.06 15.03,75.04 10.09,23.95 24.49,45.61 43.4,64.85 18.62,18.93 39.95,33.32 63.9,43.41 23.98,9.99 49.1,15.03 75.37,15.03 26.8,0 52.44,-4.94 76.72,-14.93 24.28,-9.88 46.15,-24.38 65.59,-43.51 18.72,-18.4 33.02,-39.52 42.88,-63.27 9.99,-23.75 14.93,-48.87 14.93,-75.37 z m -199.18,-227.87 c 30.81,0 59.91,5.68 87.45,17.15 27.44,11.34 52.13,27.95 73.89,49.71 20.92,20.92 37,45.08 48.14,72.52 11.26,27.44 16.81,56.33 16.81,86.91 0,31.01 -5.55,60.13 -16.81,87.24 -11.14,27.12 -27.42,50.99 -48.77,71.68 -22.38,21.76 -47.4,38.47 -74.94,50.04 -27.65,11.67 -56.23,17.45 -85.77,17.45 -29.84,0 -58.42,-5.78 -85.76,-17.24 -27.42,-11.47 -52.03,-28.29 -73.79,-50.25 -21.54,-21.33 -37.94,-45.61 -49.28,-72.93 -11.26,-27.34 -16.92,-55.92 -16.92,-85.99 0,-30.17 5.88,-59.06 17.55,-86.81 11.65,-27.65 28.59,-52.54 50.56,-74.53 20.69,-21.12 44.46,-37.2 71.36,-48.34 26.91,-11.03 55.71,-16.61 86.28,-16.61 z"
   class="fil0" />
  <path
   style="fill:#5b5b5b;fill-rule:nonzero"
   id="path9"
   d="m 3379.66,20038.03 c -151.81,0 -293.85,-26.93 -426.08,-80.81 -132.26,-53.87 -246.74,-133.46 -343.45,-238.75 -96.75,-105.3 -173.28,-235.1 -229.61,-389.37 -56.32,-154.27 -84.48,-330.6 -84.48,-528.96 0,-195.91 28.79,-371.61 86.34,-527.1 57.55,-155.52 135.9,-287.13 235.07,-394.88 99.2,-107.74 215.52,-189.81 348.98,-246.1 133.46,-56.33 276.1,-84.49 427.94,-84.49 151.81,0 286.5,30.59 404.05,91.81 117.55,61.23 214.27,132.24 290.2,213.07 l -227.75,275.5 c -63.68,-63.68 -132.23,-114.5 -205.71,-152.44 -73.46,-37.97 -156.72,-56.95 -249.79,-56.95 -97.94,0 -187.93,20.2 -269.96,60.6 -82.04,40.42 -153.07,97.97 -213.07,172.65 -60.01,74.68 -106.53,165.92 -139.59,273.67 -33.04,107.74 -49.57,228.95 -49.57,363.66 0,274.27 59.37,489.14 178.15,644.65 118.75,155.5 279.77,233.26 483.04,233.26 107.75,0 203.24,-22.66 286.5,-67.96 83.26,-45.32 159.19,-104.69 227.75,-178.15 l 227.75,268.14 c -97.97,112.65 -209.99,198.96 -336.1,258.96 -126.13,60.01 -266.32,89.99 -420.61,89.99 z m 1755.25,0 c -112.65,0 -220.4,-20.81 -323.27,-62.42 -102.85,-41.65 -194.06,-102.87 -273.65,-183.68 -79.58,-80.81 -142.66,-179.98 -189.18,-297.53 -46.52,-117.56 -69.78,-251.01 -69.78,-400.38 0,-149.39 23.26,-282.85 69.78,-400.4 46.52,-117.55 109.6,-216.72 189.18,-297.53 79.59,-80.81 170.8,-142.64 273.65,-185.51 102.87,-42.84 210.62,-64.27 323.27,-64.27 112.62,0 220.99,21.43 325.06,64.27 104.1,42.87 195.31,104.7 273.67,185.51 78.36,80.81 141.41,179.98 189.19,297.53 47.74,117.55 71.6,251.01 71.6,400.4 0,149.37 -23.86,282.82 -71.6,400.38 -47.78,117.55 -110.83,216.72 -189.19,297.53 -78.36,80.81 -169.57,142.03 -273.67,183.68 -104.07,41.61 -212.44,62.42 -325.06,62.42 z m 0,-345.27 c 132.23,0 236.3,-54.5 312.21,-163.47 75.93,-108.98 113.87,-254.07 113.87,-435.27 0,-183.68 -37.94,-329.99 -113.87,-438.97 -75.91,-108.97 -179.98,-163.47 -312.21,-163.47 -132.26,0 -235.71,54.5 -310.42,163.47 -74.68,108.98 -112.02,255.29 -112.02,438.97 0,181.2 37.34,326.29 112.02,435.27 74.71,108.97 178.16,163.47 310.42,163.47 z m 1101.35,301.2 v -1803.59 h 348.98 l 29.39,319.59 h 14.68 c 63.68,-117.55 140.81,-207.54 231.43,-269.99 90.59,-62.45 183.65,-93.66 279.17,-93.66 85.69,0 154.27,12.23 205.69,36.74 l -73.46,367.31 c -31.84,-9.78 -61.23,-17.14 -88.16,-22.04 -26.94,-4.9 -60,-7.35 -99.17,-7.35 -71.03,0 -145.71,27.56 -224.07,82.66 -78.36,55.1 -145.72,151.22 -202.04,288.35 v 1101.98 z m 2001.35,44.07 c -124.87,0 -241.2,-21.41 -348.95,-64.27 -107.74,-42.85 -202.04,-104.67 -282.85,-185.51 -80.81,-80.81 -143.86,-179.38 -189.15,-295.68 -45.32,-116.33 -67.96,-249.18 -67.96,-398.55 0,-146.94 23.26,-279.17 69.78,-396.72 46.52,-117.56 108.37,-216.72 185.51,-297.53 77.13,-80.81 165.9,-143.27 266.31,-187.34 100.4,-44.09 203.24,-66.12 308.54,-66.12 122.45,0 230.2,20.8 323.27,62.45 93.04,41.62 170.8,100.39 233.25,176.3 62.45,75.93 109.57,166.52 141.41,271.82 31.84,105.32 47.75,220.39 47.75,345.3 0,41.62 -1.83,80.81 -5.51,117.55 -3.67,36.72 -7.95,66.11 -12.85,88.14 H 7760.11 c 19.58,161.65 76.5,285.93 170.8,372.84 94.29,86.94 214.89,130.41 361.8,130.41 78.39,0 151.22,-11.63 218.58,-34.89 67.35,-23.26 134.08,-55.7 200.18,-97.35 l 143.27,264.47 c -85.72,56.32 -181.21,102.87 -286.53,139.58 -105.3,36.75 -215.49,55.1 -330.6,55.1 z m -481.18,-1116.66 h 800.78 c 0,-139.59 -30.02,-249.18 -89.99,-328.77 -60.01,-79.58 -152.45,-119.38 -277.35,-119.38 -107.75,0 -202.04,37.97 -282.85,113.88 -80.81,75.91 -131.01,187.33 -150.59,334.27 z m 1880.1,1116.66 c -151.82,0 -258.34,-45.32 -319.57,-135.91 -61.2,-90.59 -91.84,-214.26 -91.84,-370.98 v -1936.27 h 422.44 v 1958.3 c 0,51.4 9.8,87.57 29.39,108.37 19.55,20.81 40.39,31.22 62.45,31.22 9.78,0 18.96,0 27.53,0 8.58,0 21.44,-2.45 38.57,-7.36 l 55.1,315.92 c -56.32,24.48 -131.01,36.71 -224.07,36.71 z m 517.35,-44.07 v -2402.32 h 642.83 c 367.31,0 653.84,99.17 859.55,297.53 205.69,198.36 308.54,495.89 308.54,892.61 0,198.37 -26.31,373.44 -78.96,525.28 -52.65,151.82 -128.58,278.55 -227.75,380.2 -99.17,101.61 -219.17,178.15 -359.98,229.57 -140.82,51.42 -300.61,77.13 -479.36,77.13 z m 426.11,-345.27 h 187.33 c 244.89,0 432.84,-70.41 563.85,-211.22 131.01,-140.81 196.51,-359.38 196.51,-655.69 0,-293.85 -66.1,-508.14 -198.36,-642.83 -132.23,-134.68 -319.56,-202.04 -562,-202.04 h -187.33 z m 1692.77,345.27 v -2402.32 h 811.8 c 124.88,0 241.21,12.25 348.96,36.74 107.74,24.48 200.81,64.28 279.17,119.38 78.36,55.1 140.18,127.95 185.51,218.54 45.29,90.62 67.95,203.27 67.95,337.95 0,183.68 -43.47,331.82 -130.41,444.47 -86.94,112.65 -202.64,193.46 -347.12,242.43 l 573.02,1002.81 h -477.53 l -517.93,-940.36 h -367.31 v 940.36 z m 426.11,-1278.31 h 341.6 c 164.07,0 289.58,-34.26 376.51,-102.84 86.94,-68.58 130.41,-171.43 130.41,-308.56 0,-139.59 -43.47,-236.3 -130.41,-290.18 -86.93,-53.87 -212.44,-80.81 -376.51,-80.81 h -341.6 z m 2262.14,0 -84.49,293.88 h 613.45 l -84.49,-293.88 c -39.19,-127.33 -76.53,-258.33 -112.02,-393.02 -35.52,-134.71 -70.41,-268.16 -104.7,-400.4 h -14.71 c -34.26,134.69 -68.55,268.77 -102.84,402.23 -34.29,133.46 -71.01,263.86 -110.2,391.19 z m -804.45,1278.31 782.42,-2402.32 h 499.57 l 782.41,2402.32 h -448.14 l -187.33,-650.15 h -808.13 l -187.34,650.15 z m 2350.3,0 -477.51,-2402.32 h 437.12 l 209.37,1212.18 c 19.58,129.78 39.19,258.36 58.77,385.69 19.59,127.36 39.2,254.69 58.78,382.02 h 14.68 c 26.94,-127.33 53.27,-255.29 78.98,-383.84 25.72,-128.59 52.05,-256.54 78.99,-383.87 l 293.85,-1212.18 h 371.02 l 293.85,1212.18 c 26.94,124.9 53.87,251.61 80.81,380.19 26.94,128.56 53.87,257.74 80.81,387.52 h 14.71 c 19.58,-129.78 38.56,-258.34 56.92,-385.69 18.36,-127.34 37.34,-254.69 56.93,-382.02 l 209.39,-1212.18 h 407.73 l -459.15,2402.32 h -528.96 l -297.53,-1263.6 c -19.61,-93.06 -38.57,-185.51 -56.95,-277.35 -18.36,-91.81 -34.89,-184.28 -49.57,-277.32 h -14.71 c -17.13,93.04 -34.89,185.51 -53.27,277.32 -18.36,91.84 -37.34,184.29 -56.93,277.35 l -290.17,1263.6 z"
   class="fil0" />
  <path
   style="fill:#5b5b5b;fill-rule:nonzero"
   id="path11"
   d="m 3154.64,22021.47 c -102.61,0 -196.94,-17.6 -282.97,-52.79 -86.03,-35.18 -159.81,-86.07 -221.39,-152.64 -61.56,-66.54 -109.71,-148.4 -144.45,-245.58 -34.73,-97.15 -52.08,-206.94 -52.08,-329.35 0,-120.86 17.76,-229.52 53.26,-325.91 35.55,-96.38 84.85,-178.27 148.02,-245.57 63.13,-67.34 138.5,-118.97 226.11,-154.93 87.61,-35.95 182.7,-53.93 285.32,-53.93 53.7,0 103,5.35 148,16.06 44.99,10.72 86.03,24.86 123.13,42.45 37.08,17.6 70.24,37.49 99.43,59.69 29.22,22.17 54.87,44.75 76.97,67.69 l -108.92,123.95 c -39.46,-39.79 -85.24,-73.44 -137.35,-100.98 -52.07,-27.55 -117.58,-41.33 -196.51,-41.33 -78.94,0 -149.96,14.17 -213.12,42.48 -63.14,28.31 -116.81,68.84 -160.99,121.62 -44.23,52.81 -78.55,116.69 -103.03,191.65 -24.45,74.98 -36.69,159.14 -36.69,252.48 0,94.85 11.43,180.16 34.35,255.91 22.86,75.74 56.04,140.37 99.43,193.94 43.43,53.55 97.08,94.85 161.01,123.93 63.92,29.08 137.75,43.6 221.41,43.6 55.25,0 107.72,-8.03 157.44,-24.09 49.74,-16.06 90.37,-37.87 121.96,-65.41 v -392.47 h -329.14 v -158.38 h 509.09 v 633.47 c -50.53,50.51 -116.81,92.19 -198.91,125.08 -82.07,32.91 -175.2,49.36 -279.38,49.36 z m 850.02,-27.55 v -1505.61 h 485.43 c 78.94,0 151.93,7.27 219.02,21.79 67.09,14.55 124.72,38.64 172.85,72.3 48.13,33.68 85.62,77.28 112.47,130.83 26.85,53.55 40.25,119.35 40.25,197.37 0,117.84 -31.55,211.92 -94.71,282.33 -63.14,70.37 -148.38,118.58 -255.74,144.59 l 395.44,656.4 H 4857.1 l -374.11,-635.74 h -281.77 v 635.74 z m 196.56,-791.81 h 260.44 c 121.56,0 214.68,-24.12 279.4,-72.3 64.72,-48.2 97.08,-121.27 97.08,-219.21 0,-99.45 -32.36,-169.06 -97.08,-208.85 -64.72,-39.77 -157.84,-59.67 -279.4,-59.67 h -260.44 z m 1408.84,-50.51 -73.39,229.52 h 466.44 l -73.4,-229.52 c -28.4,-84.16 -55.23,-167.94 -80.49,-251.31 -25.27,-83.39 -50.51,-168.7 -75.77,-255.91 h -9.47 c -23.68,87.21 -48.16,172.52 -73.4,255.91 -25.26,83.37 -52.11,167.15 -80.52,251.31 z m -473.56,842.32 525.68,-1505.61 h 222.56 l 525.65,1505.61 h -210.72 l -146.82,-459.03 h -565.92 l -149.17,459.03 z m 1423.06,0 v -1505.61 h 442.78 c 86.83,0 166.17,7.65 237.98,22.94 71.84,15.3 132.99,40.18 183.52,74.6 50.48,34.42 89.96,79.94 118.37,136.56 28.43,56.62 42.64,126.23 42.64,208.85 0,79.59 -13.83,148.43 -41.44,206.58 -27.64,58.13 -66.71,106.33 -117.19,144.59 -50.53,38.26 -110.92,66.93 -181.15,86.06 -70.26,19.12 -148.02,28.69 -233.26,28.69 h -255.69 v 596.74 z m 196.56,-752.81 h 232.03 c 135.77,0 236.38,-24.86 301.89,-74.6 65.51,-49.71 98.28,-128.15 98.28,-235.25 0,-108.63 -34.35,-183.99 -103.03,-226.06 -68.65,-42.07 -170.86,-63.12 -306.6,-63.12 h -222.57 z m 1072.58,752.81 v -1505.61 h 196.56 v 631.17 h 722.19 v -631.17 h 198.88 v 1505.61 h -198.88 v -709.19 h -722.19 v 709.19 z m 1543.83,0 v -1505.61 h 196.55 v 1505.61 z m 1138.96,27.55 c -97.88,0 -187.86,-17.6 -269.94,-52.79 -82.1,-35.18 -153.53,-86.07 -214.32,-152.64 -60.74,-66.54 -108.1,-148.4 -142.02,-245.58 -33.97,-97.15 -50.94,-206.94 -50.94,-329.35 0,-120.86 17.38,-229.52 52.09,-325.91 34.76,-96.38 82.89,-178.27 144.45,-245.57 61.58,-67.34 134.18,-118.97 217.84,-154.93 83.66,-35.95 175.2,-53.93 274.68,-53.93 94.7,0 177.98,18.75 249.79,56.24 71.84,37.46 130.64,80.7 176.43,129.65 l -106.58,123.95 c -41.06,-42.86 -87.61,-77.28 -139.7,-103.29 -52.11,-26 -111.27,-39.02 -177.57,-39.02 -74.19,0 -141.28,14.17 -201.28,42.48 -60,28.31 -111.3,68.84 -153.91,121.62 -42.62,52.81 -75.39,116.69 -98.26,191.65 -22.89,74.98 -34.35,159.14 -34.35,252.48 0,94.85 11.46,180.16 34.35,255.91 22.87,75.74 54.84,140.37 95.91,193.94 41.01,53.55 91.16,94.85 150.34,123.93 59.18,29.08 125.89,43.6 200.08,43.6 75.77,0 142.07,-14.91 198.88,-44.75 56.84,-29.84 110.53,-71.53 161.04,-125.08 l 108.92,119.35 c -61.58,68.84 -131.02,122.39 -208.38,160.65 -77.35,38.26 -166.54,57.39 -267.55,57.39 z m 1138.93,0 c -108.92,0 -209.96,-19.9 -303.08,-59.67 -93.13,-39.79 -173.64,-94.1 -241.53,-162.97 l 118.39,-133.11 c 55.25,56.62 120.36,102.14 195.34,136.56 74.98,34.42 152.74,51.63 233.23,51.63 102.62,0 182.34,-22.55 239.15,-67.69 56.84,-45.14 85.24,-104.44 85.24,-177.88 0,-38.26 -6.68,-70.77 -20.11,-97.54 -13.4,-26.78 -31.57,-49.74 -54.46,-68.87 -22.89,-19.13 -50.12,-36.34 -81.69,-51.63 -31.57,-15.29 -65.51,-31.38 -101.83,-48.21 l -222.56,-94.08 c -36.32,-15.32 -73.4,-33.68 -111.3,-55.08 -37.87,-21.43 -71.84,-47.44 -101.8,-78.05 -29.99,-30.61 -54.49,-66.95 -73.42,-109.02 -18.94,-42.07 -28.41,-90.66 -28.41,-145.74 0,-56.62 12.23,-109.4 36.72,-158.37 24.45,-48.95 58.37,-91.43 101.81,-127.38 43.41,-35.96 94.71,-63.88 153.89,-83.78 59.21,-19.87 124.31,-29.82 195.36,-29.82 93.15,0 179.18,17.21 258.09,51.63 78.93,34.42 146.03,79.18 201.28,134.26 l -106.57,123.95 c -47.37,-44.37 -99.84,-79.2 -157.47,-104.44 -57.6,-25.24 -122.73,-37.87 -195.33,-37.87 -86.82,0 -156.67,19.51 -209.55,58.54 -52.88,39.02 -79.34,92.95 -79.34,161.8 0,36.72 7.52,67.71 22.5,92.96 14.99,25.24 35.12,47.43 60.41,66.56 25.24,19.13 52.85,35.96 82.87,50.48 29.98,14.55 60.74,27.93 92.33,40.18 l 220.22,91.8 c 44.17,18.37 86.03,39.41 125.48,63.12 39.46,23.71 73.42,51.25 101.83,82.63 28.4,31.35 50.89,68.07 67.45,110.16 16.61,42.07 24.88,90.66 24.88,145.74 0,59.67 -12.22,115.52 -36.69,167.56 -24.48,52.01 -59.6,97.53 -105.38,136.56 -45.76,39 -101.01,69.61 -165.76,91.81 -64.72,22.17 -138.11,33.27 -220.19,33.27 z m 1738.01,0 c -108.95,0 -209.96,-19.9 -303.08,-59.67 -93.15,-39.79 -173.67,-94.1 -241.56,-162.97 l 118.42,-133.11 c 55.25,56.62 120.35,102.14 195.33,136.56 74.98,34.42 152.74,51.63 233.24,51.63 102.62,0 182.32,-22.55 239.15,-67.69 56.84,-45.14 85.24,-104.44 85.24,-177.88 0,-38.26 -6.69,-70.77 -20.13,-97.54 -13.4,-26.78 -31.55,-49.74 -54.44,-68.87 -22.92,-19.13 -50.15,-36.34 -81.69,-51.63 -31.57,-15.29 -65.51,-31.38 -101.83,-48.21 l -222.57,-94.08 c -36.31,-15.32 -73.39,-33.68 -111.29,-55.08 -37.87,-21.43 -71.84,-47.44 -101.8,-78.05 -30.02,-30.61 -54.49,-66.95 -73.43,-109.02 -18.96,-42.07 -28.43,-90.66 -28.43,-145.74 0,-56.62 12.25,-109.4 36.73,-158.37 24.47,-48.95 58.39,-91.43 101.82,-127.38 43.39,-35.96 94.71,-63.88 153.9,-83.78 59.2,-19.87 124.31,-29.82 195.36,-29.82 93.12,0 179.15,17.21 258.06,51.63 78.94,34.42 146.03,79.18 201.28,134.26 l -106.55,123.95 c -47.36,-44.37 -99.83,-79.2 -157.46,-104.44 -57.62,-25.24 -122.73,-37.87 -195.33,-37.87 -86.83,0 -156.7,19.51 -209.56,58.54 -52.87,39.02 -79.34,92.95 -79.34,161.8 0,36.72 7.53,67.71 22.51,92.96 14.98,25.24 35.12,47.43 60.38,66.56 25.24,19.13 52.88,35.96 82.87,50.48 30.01,14.55 60.76,27.93 92.33,40.18 l 220.22,91.8 c 44.2,18.37 86.05,39.41 125.49,63.12 39.48,23.71 73.42,51.25 101.85,82.63 28.4,31.35 50.89,68.07 67.45,110.16 16.59,42.07 24.88,90.66 24.88,145.74 0,59.67 -12.25,115.52 -36.7,167.56 -24.5,52.01 -59.59,97.53 -105.37,136.56 -45.79,39 -101.01,69.61 -165.76,91.81 -64.72,22.17 -138.12,33.27 -220.19,33.27 z m 1314.11,0 c -78.93,0 -152.72,-11.1 -221.39,-33.27 -68.65,-22.2 -127.86,-58.92 -177.57,-110.17 -49.74,-51.28 -88.79,-118.2 -117.22,-200.83 -28.41,-82.62 -42.62,-184.38 -42.62,-305.26 v -883.63 h 196.53 v 888.23 c 0,90.27 9.47,166 28.41,227.22 18.94,61.19 44.61,110.17 76.97,146.89 32.36,36.72 70.64,63.11 114.84,79.17 44.18,16.06 91.54,24.09 142.05,24.09 52.09,0 100.25,-8.03 144.45,-24.09 44.2,-16.06 82.89,-42.45 116.01,-79.17 33.16,-36.72 59.21,-85.7 78.15,-146.89 18.93,-61.22 28.4,-136.95 28.4,-227.22 v -888.23 h 189.44 v 883.63 c 0,120.88 -14.21,222.64 -42.64,305.26 -28.41,82.63 -67.45,149.55 -117.19,200.83 -49.72,51.25 -108.54,87.97 -176.38,110.17 -67.88,22.17 -141.28,33.27 -220.24,33.27 z m 904.53,-27.55 v -1505.61 h 196.53 v 1505.61 z m 873.72,0 v -1344.96 h -468.84 v -160.65 h 1136.57 v 160.65 h -468.84 v 1344.96 z m 947.1,0 v -1505.61 h 895.09 v 160.65 h -698.53 v 472.8 h 589.58 v 162.97 h -589.58 v 546.24 h 722.19 v 162.95 z"
   class="fil0" />
  <path
   style="fill:#5b5b5b"
   id="path13"
   d="m 10860.04,13907.49 h -194.85 C 9875.64,11283.98 9415.21,9023.54 9311.5,7214.7 9161.78,4603.19 9695.41,2932.77 10550.08,2469.72 c 79.56,-43.07 168.46,-76.75 309.96,-78.99 141.46,2.24 230.36,35.92 309.91,78.99 854.81,463.15 1388.49,2134.17 1238.49,4746.71 -103.85,1808.55 -564.28,4068.39 -1353.55,6691.06 z M 10135.43,2380.54 c 0,0 -2324.02,879.62 -2156.73,4262.73 167.29,3383.07 2478.84,7262.4 2478.84,7262.4 C 9034.48,12643.08 6926.71,8709.75 6886.06,6395.16 6917.41,3952.77 8526.07,2964.35 8981.27,2747.4 c 455.24,-216.95 937.49,-357.65 1154.16,-366.86 z M 8105.86,2975 c 0,0 -2496.4,1028.31 -2002.71,3997.01 493.69,2968.7 3120.81,6136.83 3901.01,6809.77 279.78,256.52 -3224.05,-3654.39 -3563.77,-7089.6 C 6277.78,5395.21 6656.78,3957.53 8105.86,2975 Z m 5564.19,0 c 0,0 2496.4,1028.31 2002.7,3997.01 -493.69,2968.7 -3120.85,6136.83 -3901.05,6809.77 -279.69,256.52 3224.09,-3654.39 3563.81,-7089.6 C 15498.13,5395.21 15119.12,3957.53 13670.05,2975 Z m -2040.6,-594.46 c 0,0 2324.02,879.62 2156.73,4262.73 -167.29,3383.07 -2478.88,7262.4 -2478.88,7262.4 1423.1,-1262.59 3530.83,-5195.92 3571.47,-7510.51 -31.3,-2442.39 -1639.96,-3430.81 -2095.2,-3647.76 -455.2,-216.95 -937.45,-357.65 -1154.12,-366.86 z"
   class="fil1" />
  <polygon
   style="fill:#5b5b5b"
   id="polygon15"
   points="11855.47,14574.79 9864.57,14574.79 10131.91,15777.5 11584.59,15777.5 "
   class="fil1" />
 </g>
</svg>